<svg width="7" height="32" viewBox="0 0 7 32" fill="none" xmlns="http://www.w3.org/2000/svg">
<path d="M1.90488 21.6774L1.24799 4.92669L1.10722 0H5.89315L5.75239 4.92669L5.09549 21.6774H1.90488ZM3.50019 32C2.62433 32 1.8736 31.6872 1.24799 31.0616C0.622376 30.436 0.30957 29.6383 0.30957 28.6686C0.30957 27.6676 0.622376 26.8543 1.24799 26.2287C1.8736 25.6031 2.62433 25.2903 3.50019 25.2903C4.40732 25.2903 5.15805 25.6031 5.75239 26.2287C6.378 26.8543 6.6908 27.6676 6.6908 28.6686C6.6908 29.6383 6.378 30.436 5.75239 31.0616C5.15805 31.6872 4.40732 32 3.50019 32Z" fill="#D80027"/>
</svg>
