<svg width="42" height="38" viewBox="0 0 42 38" fill="none" xmlns="http://www.w3.org/2000/svg">
<path d="M24.8624 20.1469C26.626 20.1469 28.0556 18.6555 28.0556 16.8158C28.0556 14.976 26.626 13.4846 24.8624 13.4846C23.0988 13.4846 21.6692 14.976 21.6692 16.8158C21.6692 18.6555 23.0988 20.1469 24.8624 20.1469Z" fill="white"/>
<path fill-rule="evenodd" clip-rule="evenodd" d="M24.8623 13.5275C23.1214 13.5275 21.7102 14.9997 21.7102 16.8157C21.7102 18.6317 23.1214 20.1039 24.8623 20.1039C26.6031 20.1039 28.0143 18.6317 28.0143 16.8157C28.0143 14.9997 26.6031 13.5275 24.8623 13.5275ZM21.6279 16.8157C21.6279 14.9523 23.076 13.4417 24.8623 13.4417C26.6485 13.4417 28.0966 14.9523 28.0966 16.8157C28.0966 18.6791 26.6485 20.1897 24.8623 20.1897C23.076 20.1897 21.6279 18.6791 21.6279 16.8157Z" fill="white"/>
<path d="M10.4049 33.8954C13.3514 34.5038 14.54 32.4752 14.54 32.4752C14.54 32.4752 0.49216 18.9807 4.60664 6.24483C5.26305 4.21371 7.85743 3.02696 8.97037 2.99349C16.0774 2.7764 19.361 16.1739 19.361 16.1739C21.772 12.315 24.8887 10.1475 24.8887 10.1475C31.9126 5.46482 35.986 10.1475 35.986 10.1475C45.9185 21.3328 23.4961 37.9602 23.4961 37.9602C23.4961 37.9602 42.1783 28.7039 41.5967 16.1739C41.0151 3.64393 29.1718 0.11028 21.4183 6.48339C21.4183 6.48339 16.5767 -0.0853672 11.7556 0.00130091C11.7556 0.00130091 0.845864 -0.389135 0.035635 12.3579C-0.549211 21.5533 6.21888 28.8163 9.0263 32.9909C9.34463 33.4646 9.82913 33.7855 10.3753 33.8894C10.3852 33.8919 10.3959 33.8937 10.4049 33.8954Z" fill="white"/>
<path fill-rule="evenodd" clip-rule="evenodd" d="M19.9845 37.1816C16.6589 38.7725 14.0464 37.3223 14.0464 37.3223C17.7405 38.6283 24.8319 33.4746 26.3438 30.5133C27.2363 28.7653 26.1908 28.447 25.5122 28.6709C25.1816 28.7798 24.9045 28.9425 24.6396 29.098C24.0884 29.4217 23.5894 29.7146 22.7689 29.4295C21.5944 29.0211 20.8599 26.8633 20.3523 25.3723C20.2402 25.0431 20.1392 24.7465 20.047 24.5083C19.6522 23.4897 17.6361 22.4712 17.8442 25.4625C18.1428 29.7581 18.1551 30.4266 17.7405 31.4675C17.7211 31.5164 17.7013 31.5665 17.6812 31.6177C17.1983 32.8437 16.4805 34.6663 13.5723 35.1878C10.7221 35.6983 9.24752 33.2283 9.24752 33.2283C12.0506 35.1448 14.436 32.4847 14.436 32.4847C17.4754 27.8235 14.0781 21.2972 11.0522 15.4844C9.39223 12.2955 7.84402 9.32131 7.53164 6.98761C7.14174 4.07779 9.2105 5.36923 9.51074 5.86607C22.7361 27.7696 26.8272 22.9663 30.8289 18.2679C31.065 17.9906 31.3009 17.7137 31.5383 17.4427C33.8884 14.7594 34.0734 16.8901 34.0734 16.8901C33.8785 27.0757 24.878 34.8407 19.9845 37.1816ZM26.0287 26.3532C26.0287 27.5385 25.1077 28.4993 23.9715 28.4993C22.8353 28.4993 21.9142 27.5385 21.9142 26.3532C21.9142 25.1679 22.8353 24.2071 23.9715 24.2071C25.1077 24.2071 26.0287 25.1679 26.0287 26.3532Z" fill="white"/>
<path fill-rule="evenodd" clip-rule="evenodd" d="M9.04145 5.38588C9.27386 5.53283 9.46566 5.71089 9.54565 5.84325L9.54565 5.84326C12.8513 11.318 15.5852 15.1222 17.8885 17.6758C20.1923 20.2299 22.0624 21.5297 23.6401 22.0015C25.215 22.4725 26.5027 22.1197 27.6475 21.3564C28.7947 20.5914 29.7969 19.4152 30.7983 18.2395L30.7985 18.2392C31.0345 17.9621 31.2705 17.685 31.508 17.4138C32.097 16.7414 32.5533 16.3669 32.9079 16.1859C33.2634 16.0043 33.5218 16.0151 33.7072 16.1227C33.8901 16.2288 33.9913 16.423 34.0466 16.5847C34.0746 16.6662 34.0915 16.7412 34.1014 16.7958C34.1064 16.8232 34.1096 16.8455 34.1117 16.8611C34.1127 16.869 34.1134 16.8751 34.1138 16.8794C34.1141 16.8815 34.1142 16.8831 34.1143 16.8843L34.1145 16.8857L34.1145 16.8861L34.1145 16.8862C34.1145 16.8862 34.1145 16.8863 34.0736 16.8901L34.1145 16.8863L34.1147 16.8886L34.1147 16.891C34.0169 21.997 31.7122 26.4939 28.8222 30.0056C25.9323 33.5172 22.4541 36.0475 20.0018 37.2206C18.3305 38.0201 16.8377 38.0557 15.7625 37.891C15.2249 37.8087 14.7918 37.6764 14.4928 37.5645C14.3432 37.5085 14.2272 37.4576 14.1484 37.4207C14.109 37.4022 14.0788 37.3872 14.0585 37.3767C14.0483 37.3715 14.0406 37.3674 14.0353 37.3646C14.0334 37.3636 14.0318 37.3628 14.0306 37.3621L14.0294 37.3614L14.0278 37.3606L14.0274 37.3603L14.0272 37.3603C14.0272 37.3602 14.0272 37.3602 14.0319 37.351L14.0272 37.3602L14.0597 37.2817C14.9722 37.6043 16.0988 37.5292 17.3029 37.1845C18.5064 36.84 19.783 36.2275 20.9926 35.4812C22.2021 34.7349 23.3435 33.8555 24.2765 32.9783C25.2102 32.1005 25.9329 31.2271 26.3076 30.4932C26.7524 29.6221 26.7025 29.1298 26.4868 28.8815C26.3777 28.7559 26.2213 28.6858 26.0484 28.6611C25.8756 28.6364 25.6892 28.6576 25.5247 28.7119L25.5247 28.7119C25.1987 28.8193 24.9252 28.9797 24.6599 29.1355L24.6574 29.1369C24.3835 29.2977 24.1169 29.4543 23.8154 29.5337C23.5113 29.6138 23.1734 29.6153 22.756 29.4703C22.1523 29.2603 21.6686 28.6047 21.2743 27.827C20.879 27.0474 20.5676 26.1328 20.3141 25.3881L20.3136 25.3867C20.2015 25.0572 20.1008 24.7616 20.009 24.5244C19.9136 24.2784 19.7189 24.0295 19.4822 23.8412C19.2452 23.6527 18.971 23.5285 18.719 23.5246C18.4702 23.5208 18.2395 23.6339 18.0811 23.9292C17.9209 24.2278 17.8335 24.7151 17.8853 25.4594L17.8443 25.4626L17.8853 25.4594C18.1836 29.7506 18.1978 30.4315 17.7786 31.484C17.7592 31.5328 17.7395 31.5829 17.7193 31.634L17.7186 31.6358C17.4774 32.2483 17.1749 33.0165 16.5664 33.6963C15.9564 34.3778 15.0415 34.9679 13.5794 35.2301L13.5728 35.1899L13.5794 35.2301C12.1408 35.4878 11.0485 34.9929 10.3169 34.4342C9.95132 34.1549 9.67563 33.8597 9.49128 33.6342C9.39908 33.5214 9.32965 33.4259 9.28317 33.3585C9.25994 33.3248 9.24243 33.2982 9.23068 33.2798C9.22481 33.2706 9.22037 33.2635 9.21738 33.2587C9.21634 33.257 9.21547 33.2556 9.21478 33.2544L9.21397 33.2531L9.21307 33.2516L9.21283 33.2512L9.21276 33.2511C9.21274 33.2511 9.21272 33.251 9.24763 33.2284L9.21272 33.251L9.11401 33.0857L9.27018 33.1925C10.6574 34.141 11.9394 33.9571 12.8768 33.5359C13.346 33.325 13.7287 33.0546 13.9942 32.8368C14.1269 32.7279 14.2301 32.6323 14.3001 32.564C14.335 32.5299 14.3617 32.5026 14.3795 32.4839C14.3855 32.4777 14.3904 32.4724 14.3944 32.4682C14.3964 32.4661 14.3981 32.4642 14.3996 32.4626C14.4015 32.4606 14.4029 32.459 14.404 32.4578C15.9116 30.1434 15.8251 27.3632 14.9793 24.4288C14.1331 21.4931 12.5296 18.4123 11.0162 15.5049L11.0158 15.5041C10.1861 13.9102 9.3835 12.3685 8.74934 10.9333C8.11522 9.49827 7.64805 8.16674 7.49102 6.99361C7.39317 6.26332 7.44797 5.78725 7.59802 5.49474C7.67353 5.34753 7.77315 5.24691 7.88863 5.18492C8.00377 5.12312 8.13227 5.101 8.26416 5.10653C8.52688 5.11756 8.80838 5.23851 9.04145 5.38588ZM14.4361 32.4848C14.4662 32.5141 14.4661 32.5141 14.4661 32.5142L14.466 32.5143L14.4656 32.5147L14.4642 32.5163C14.463 32.5176 14.4612 32.5196 14.4588 32.5222C14.4541 32.5273 14.447 32.5348 14.4378 32.5445C14.4193 32.5638 14.392 32.5918 14.3563 32.6267C14.2848 32.6964 14.1798 32.7936 14.045 32.9042C13.7756 33.1253 13.3868 33.4001 12.9093 33.6147C11.9925 34.0267 10.7481 34.2164 9.39897 33.3777C9.43989 33.4342 9.49154 33.5022 9.55387 33.5785C9.73507 33.8001 10.0062 34.0905 10.3655 34.3649C11.0838 34.9135 12.1539 35.3984 13.5655 35.1455C15.0115 34.8863 15.9096 34.3044 16.5063 33.6377C17.1039 32.97 17.4017 32.2148 17.6433 31.6014L17.6434 31.601C17.6635 31.55 17.6832 31.5 17.7027 31.4511L17.7381 31.4664L17.7027 31.4511C18.1126 30.4219 18.1022 29.7658 17.8033 25.4657C17.751 24.7144 17.8376 24.2072 18.0093 23.8873C18.1827 23.5641 18.4417 23.4346 18.7202 23.4388C18.9955 23.443 19.2864 23.5775 19.532 23.773C19.7779 23.9686 19.9832 24.229 20.0853 24.4923L20.0853 24.4923C20.1778 24.7313 20.279 25.0286 20.3909 25.3571L20.3911 25.358C20.6451 26.1041 20.9547 27.0132 21.347 27.7869C21.7404 28.5629 22.2112 29.1904 22.782 29.3888C23.1851 29.5289 23.507 29.5265 23.7953 29.4505C24.0853 29.3741 24.3431 29.223 24.6195 29.0607L24.6209 29.0599C24.8851 28.9048 25.1652 28.7403 25.4999 28.6301C25.6747 28.5724 25.8734 28.5494 26.0596 28.5761C26.2457 28.6027 26.4222 28.6794 26.5477 28.8239C26.8013 29.1158 26.8279 29.6566 26.3802 30.5335C25.999 31.2802 25.2683 32.1615 24.3316 33.0421C23.3944 33.9232 22.2486 34.8059 21.0345 35.555C19.8205 36.304 18.5371 36.9202 17.3247 37.2672C16.3422 37.5485 15.4035 37.6538 14.5853 37.5075C14.8765 37.6123 15.2808 37.7305 15.7744 37.8061C16.8368 37.9688 18.3131 37.934 19.9675 37.1426C22.4086 35.9748 25.8774 33.4522 28.7598 29.9497C31.6417 26.4479 33.9344 21.9704 34.0324 16.8918C34.0323 16.891 34.0322 16.8901 34.0321 16.8889C34.0318 16.8863 34.0314 16.8827 34.0309 16.8783C34.0306 16.8766 34.0304 16.8746 34.0301 16.8726C34.0283 16.8583 34.0253 16.8375 34.0206 16.8118C34.0112 16.7604 33.9953 16.6899 33.9692 16.6136C33.9164 16.4596 33.8244 16.2889 33.6673 16.1977C33.5127 16.108 33.2841 16.0893 32.944 16.2629C32.603 16.4371 32.1549 16.8025 31.5688 17.4717C31.3316 17.7424 31.096 18.0191 30.8598 18.2964L30.8598 18.2965L30.8574 18.2992C29.8587 19.4718 28.8495 20.6567 27.6918 21.4287C26.5307 22.2029 25.2188 22.5629 23.6175 22.084C22.019 21.606 20.1365 20.2934 17.8286 17.7346C15.5201 15.1753 12.7831 11.366 9.47606 5.88901C9.40593 5.77295 9.22655 5.60326 8.99881 5.45926C8.77173 5.31568 8.50411 5.20248 8.26085 5.19227C8.13975 5.18719 8.02604 5.20767 7.92627 5.26123C7.82684 5.31459 7.73884 5.40207 7.67054 5.53522C7.53297 5.80342 7.47539 6.2571 7.57249 6.98173L7.57249 6.98173C7.72784 8.14229 8.19096 9.4647 8.82404 10.8974C9.45697 12.3297 10.2583 13.8692 11.0885 15.464L11.0897 15.4664C12.6018 18.3711 14.2092 21.4591 15.0581 24.4041C15.9072 27.3503 16 30.1627 14.4701 32.5089L14.4683 32.5117L14.4662 32.5141L14.4361 32.4848ZM21.8732 26.3533C21.8732 25.1443 22.8127 24.1642 23.9716 24.1642C25.1305 24.1642 26.07 25.1443 26.07 26.3533C26.07 27.5622 25.1305 28.5423 23.9716 28.5423C22.8127 28.5423 21.8732 27.5622 21.8732 26.3533ZM23.9716 24.2501C22.8581 24.2501 21.9555 25.1917 21.9555 26.3533C21.9555 27.5148 22.8581 28.4565 23.9716 28.4565C25.0851 28.4565 25.9877 27.5148 25.9877 26.3533C25.9877 25.1917 25.0851 24.2501 23.9716 24.2501Z" fill="white"/>
</svg>
